<?xml version="1.0" encoding="UTF-8" standalone="no"?>
<!DOCTYPE svg PUBLIC "-//W3C//DTD SVG 1.1//EN"
 "http://www.w3.org/Graphics/SVG/1.1/DTD/svg11.dtd">
<!-- Generated by graphviz version 2.47.0 (20210316.0004)
 -->
<!-- Title: dependencies Pages: 1 -->
<svg width="504pt" height="211pt"
 viewBox="0.00 0.00 504.00 211.00" xmlns="http://www.w3.org/2000/svg" xmlns:xlink="http://www.w3.org/1999/xlink">
<g id="graph0" class="graph" transform="scale(1 1) rotate(0) translate(4 207)">
<title>dependencies</title>
<polygon fill="white" stroke="transparent" points="-4,4 -4,-207 500,-207 500,4 -4,4"/>
<text text-anchor="start" x="227.01" y="-42.4" font-family="sans-serif" font-weight="bold" font-size="14.00">Legend</text>
<polygon fill="#ffffb3" stroke="transparent" points="14,-10 14,-30 34,-30 34,-10 14,-10"/>
<text text-anchor="start" x="37.63" y="-15.4" font-family="sans-serif" font-size="14.00"> &#160;Declarations</text>
<polygon fill="#8dd3c7" stroke="transparent" points="127,-10 127,-30 147,-30 147,-10 127,-10"/>
<text text-anchor="start" x="150.73" y="-15.4" font-family="sans-serif" font-size="14.00"> &#160;Module</text>
<polygon fill="#80b1d3" stroke="transparent" points="213,-10 213,-30 233,-30 233,-10 213,-10"/>
<text text-anchor="start" x="236.78" y="-15.4" font-family="sans-serif" font-size="14.00"> &#160;Bootstrap</text>
<polygon fill="#fdb462" stroke="transparent" points="310,-10 310,-30 330,-30 330,-10 310,-10"/>
<text text-anchor="start" x="333.67" y="-15.4" font-family="sans-serif" font-size="14.00"> &#160;Providers</text>
<polygon fill="#fb8072" stroke="transparent" points="406,-10 406,-30 426,-30 426,-10 406,-10"/>
<text text-anchor="start" x="429.73" y="-15.4" font-family="sans-serif" font-size="14.00"> &#160;Exports</text>
<g id="clust1" class="cluster">
<title>cluster_AppModule</title>
<polygon fill="none" stroke="black" stroke-dasharray="1,5" points="51,-70 51,-195 445,-195 445,-70 51,-70"/>
</g>
<g id="clust3" class="cluster">
<title>cluster_AppModule_imports</title>
<polygon fill="none" stroke="black" points="197,-78 197,-130 437,-130 437,-78 197,-78"/>
</g>
<g id="clust6" class="cluster">
<title>cluster_AppModule_providers</title>
<polygon fill="none" stroke="black" points="59,-78 59,-130 189,-130 189,-78 59,-78"/>
</g>
<!-- CategoriaModule -->
<g id="node1" class="node">
<title>CategoriaModule</title>
<polygon fill="#8dd3c7" stroke="black" points="428.97,-122 425.97,-126 404.97,-126 401.97,-122 315.03,-122 315.03,-86 428.97,-86 428.97,-122"/>
<text text-anchor="middle" x="372" y="-99.8" font-family="Times,serif" font-size="14.00">CategoriaModule</text>
</g>
<!-- AppModule -->
<g id="node3" class="node">
<title>AppModule</title>
<polygon fill="#8dd3c7" stroke="black" points="292.66,-187 289.66,-191 268.66,-191 265.66,-187 209.34,-187 209.34,-151 292.66,-151 292.66,-187"/>
<text text-anchor="middle" x="251" y="-164.8" font-family="Times,serif" font-size="14.00">AppModule</text>
</g>
<!-- CategoriaModule&#45;&gt;AppModule -->
<g id="edge1" class="edge">
<title>CategoriaModule&#45;&gt;AppModule</title>
<path fill="none" stroke="black" d="M372,-122.11C372,-141.34 372,-169 372,-169 372,-169 302.98,-169 302.98,-169"/>
<polygon fill="black" stroke="black" points="302.98,-165.5 292.98,-169 302.98,-172.5 302.98,-165.5"/>
</g>
<!-- FilmeModule -->
<g id="node2" class="node">
<title>FilmeModule</title>
<polygon fill="#8dd3c7" stroke="black" points="297.22,-122 294.22,-126 273.22,-126 270.22,-122 204.78,-122 204.78,-86 297.22,-86 297.22,-122"/>
<text text-anchor="middle" x="251" y="-99.8" font-family="Times,serif" font-size="14.00">FilmeModule</text>
</g>
<!-- FilmeModule&#45;&gt;AppModule -->
<g id="edge2" class="edge">
<title>FilmeModule&#45;&gt;AppModule</title>
<path fill="none" stroke="black" d="M251,-122.11C251,-122.11 251,-140.99 251,-140.99"/>
<polygon fill="black" stroke="black" points="247.5,-140.99 251,-150.99 254.5,-140.99 247.5,-140.99"/>
</g>
<!-- AppService -->
<g id="node4" class="node">
<title>AppService</title>
<ellipse fill="#fdb462" stroke="black" cx="124" cy="-104" rx="56.74" ry="18"/>
<text text-anchor="middle" x="124" y="-99.8" font-family="Times,serif" font-size="14.00">AppService</text>
</g>
<!-- AppService&#45;&gt;AppModule -->
<g id="edge3" class="edge">
<title>AppService&#45;&gt;AppModule</title>
<path fill="none" stroke="black" d="M124,-122.11C124,-141.34 124,-169 124,-169 124,-169 199.06,-169 199.06,-169"/>
<polygon fill="black" stroke="black" points="199.06,-172.5 209.06,-169 199.06,-165.5 199.06,-172.5"/>
</g>
</g>
</svg>
